PathFileType	4	(X/Y/Z)	pose_F01_0-96.trc
DataRate	CameraRate	NumFrames	NumMarkers	Units	OrigDataRate	OrigDataStartFrame	OrigNumFrames
30	30	9	21	m	30	36	96
Frame#	Time	CHip			RHip			RKnee			RAnkle			RBigToe			RSmallToe			RHeel			LHip			LKnee			LAnkle			LBigToe			LSmallToe			LHeel			Neck			Nose			RShoulder			RElbow			RWrist			LShoulder			LElbow			LWrist			
		X1	Y1	Z1	X2	Y2	Z2	X3	Y3	Z3	X4	Y4	Z4	X5	Y5	Z5	X6	Y6	Z6	X7	Y7	Z7	X8	Y8	Z8	X9	Y9	Z9	X10	Y10	Z10	X11	Y11	Z11	X12	Y12	Z12	X13	Y13	Z13	X14	Y14	Z14	X15	Y15	Z15	X16	Y16	Z16	X17	Y17	Z17	X18	Y18	Z18	X19	Y19	Z19	X20	Y20	Z20	X21	Y21	Z21	
36	1.2	-0.17484675227611696	1.8380364406263294	-0.518651718149512	-0.189500017843887	1.8373763865488137	-0.4578819670865871	-0.22497406407973833	1.6928899001357331	-0.5025496150317696	-0.18843835188922445	1.67406248833791	-0.43714442783672414							-0.16339081655689036	1.563512851446416	-0.44834747786038387	-0.15973684669415208	1.83853319232083	-0.5825933032545406	-0.19939415300075233	1.6990618418150194	-0.5575515893579474	-0.16043716405936512	1.5766017810310053	-0.5155258849511489	-0.18309224927254764	1.5468223847786517	-0.5536870139511231	-0.16979296094075558	1.5525189064505223	-0.5547681272166631	-0.15363984954706406	1.575751729514597	-0.5067424267728023	-0.1900552740080067	1.9980838097646763	-0.5535184756716968	-0.22151224370041633	2.0702982566764327	-0.5848214970543968	-0.21029362872228935	1.9973057703915102	-0.46802524228001524	-0.19105689965157407	1.918245890448612	-0.3930439017198382	-0.19789353598890558	1.8465192489562812	-0.35802543242063184	-0.16530133061328903	2.000166373112024	-0.6415224353735827	-0.12445691191165399	1.935390177215294	-0.6719066904993747	-0.12132753697518787	1.864331510100414	-0.6972718083451818
37	1.2333333333333334	-0.17691733760914075	1.8194769762664889	-0.5134858741039805	-0.19162130351849468	1.8180490027724785	-0.45251604280708174	-0.23656948821172233	1.6796849062572032	-0.5197174032732191	-0.18843835188922445	1.67406248833791	-0.43714442783672414							-0.16339081655689036	1.563512851446416	-0.44834747786038387	-0.16335638638842462	1.8199110948498338	-0.5719860883103026	-0.21135244730930747	1.6848910664330714	-0.5565759622967292	-0.1612427828008745	1.5726908441386522	-0.5186851198952321	-0.18612046358678755	1.546402648541919	-0.5546926013035975	-0.1728659470097357	1.552243932807353	-0.5557267426392517	-0.15226859435633963	1.5738987497854406	-0.5079282143738737	-0.1901732085906114	1.9804250229423033	-0.549779072397329	-0.22590393198194722	2.056587750606206	-0.5958911408601809	-0.21236085121326567	1.9812484702564952	-0.47068759201602556	-0.19734113580382756	1.8966752015667163	-0.4088134563475714	-0.20872264530847082	1.8291021640327583	-0.37884460038298595	-0.16479015137312852	1.9805315885837143	-0.6351378127156351	-0.12432011179692141	1.9046317397214754	-0.6655867168989431	-0.13485103459658077	1.8281479340144282	-0.6632504191534846
38	1.2666666666666666	-0.1779965456740953	1.8168525255222927	-0.5238547676745686	-0.19262308909414783	1.8160467762662205	-0.46299736614016557	-0.2364248128661996	1.6739746061351306	-0.5239319959309947	-0.18843835188922445	1.67406248833791	-0.43714442783672414							-0.16339081655689036	1.563512851446416	-0.44834747786038387	-0.1611781625500926	1.8181204423484816	-0.5814986326488248	-0.21368648591394349	1.6813426816062402	-0.5796767552862769	-0.1619603181528134	1.5682811354245265	-0.5217408006688519	-0.18446871274161555	1.540820363998599	-0.5601481859186753	-0.1749351406321052	1.550118420291674	-0.5619007579004675	-0.1600446055589422	1.5727831874850982	-0.5168947879584878	-1.7458995485948117	1.8893468874089165	1.16442792910281	-0.2209444588259048	2.054617518371241	-0.5884809368692921	-0.21282194089285747	1.976070737219471	-0.4717280577697849	-0.21784293478859418	1.884601482702176	-0.4092688303336937	-0.21932092686364188	1.9048061210360676	-0.40447291591655504	-1.5907379205043095	1.888485079445	0.9024462048822479	-0.12833078476980853	1.918175078416864	-0.6672509964099753	-0.13925026797150533	1.8919797443756332	-0.6792215772312713
39	1.3	-0.1852159154910375	1.8315562757013182	-0.5309250263306083	-0.19913220800547235	1.8299716059671651	-0.47562549211541355	-0.23346291058731652	1.6863634356708483	-0.528599657159837	-0.18843835188922445	1.67406248833791	-0.43714442783672414							-0.16339081655689036	1.563512851446416	-0.44834747786038387	-0.1677602993861984	1.8340428317765924	-0.585154447510484	-0.20108634392290214	1.6935511836769899	-0.5859746595974754	-0.161592231328864	1.5741234615724855	-0.5185439455369761	-0.18501230198148783	1.544028149700688	-0.5596440560738674	-0.17256851567237452	1.5516442565978816	-0.5646937581227266	-0.15815469566344198	1.5750362490292111	-0.510722060515944	-0.18288541413697434	1.996074874976232	-0.5572135941979126	-0.20948168149912894	2.0635988151644917	-0.596524688338981	-0.20803492813942082	1.9930278147086726	-0.4778943663941498	-0.2329142563937652	1.9493031077145944	-0.4273828509996459	-0.22991920841881291	1.980510078039377	-0.43010123145012413	-0.1572625168588719	2.001055247703623	-0.643496075747005	-0.13234145774269565	1.931718417112253	-0.6689152759210075	-0.1436495013464299	1.9558115547368384	-0.695192735309058
40	1.3333333333333333	-0.18719742926958263	1.8792206917193912	-0.5471115379773365	-0.20509772271460172	1.877105549066008	-0.4963832377378917	-0.23378134450608437	1.72792954105945	-0.5238456762738998	-0.18843835188922445	1.67406248833791	-0.43714442783672414							-0.16339081655689036	1.563512851446416	-0.44834747786038387	-0.16719955848525236	1.8829697044102471	-0.6031486010306825	-0.18387322748560497	1.7358106909209068	-0.5806201139230612	-0.1581542170461063	1.591975732938133	-0.5208685215790029	-0.18735778843640305	1.5506751133541576	-0.5592424665570003	-0.16982900622924005	1.5607435683244193	-0.5740138699701243	-0.15953520649703765	1.5761061679210773	-0.5099431215307357	-0.17787852986626743	2.0378969443199466	-0.5586599814627311	-0.19394959208687046	2.100629004126733	-0.5999093554117353	-0.20487353115714496	2.0358332962309986	-0.48609419384727703	-0.24798557799893625	2.0140047327270127	-0.44549687166559815	-0.24051748997398398	2.0562140350426863	-0.45572954698369317	-0.1520018414102088	2.0426516992322092	-0.6433753415187388	-0.13635213071558275	1.9452617558076417	-0.6705795554320396	-0.14804873472135446	2.0196433650980437	-0.7111638933868448
41	1.3666666666666667	-0.19297412125998367	1.9249591520053286	-0.5496359626554219	-0.21090718428943497	1.9205817794558298	-0.4991940145397937	-0.2340997784248522	1.7694956464480518	-0.5190916953879624	-0.18843835188922445	1.67406248833791	-0.43714442783672414							-0.16339081655689036	1.563512851446416	-0.44834747786038387	-0.16998239612279217	1.9284881027330814	-0.6044173092541706	-0.16666011104830777	1.7780701981648237	-0.575265568248647	-0.15988968926703798	1.5903859717986357	-0.5192341419317824	-0.18886840051618303	1.5493488092140426	-0.5575180677053981	-0.1713444901989826	1.5592978561258244	-0.5722893590133239	-0.1609157173306333	1.5771760868129434	-0.5091641825455274	-0.17800216627422563	2.0857453361565486	-0.5691842393012868	-0.19137481912529264	2.149866733114691	-0.5985667480868231	-0.20322219720356394	2.0814664744567692	-0.5003133489772312	-0.2630568996041073	2.0787063577394314	-0.46361089233155034	-0.25111577152915504	2.1319179920459956	-0.48135786251726226	-0.15145456956017442	2.094027945344936	-0.6414836048494277	-0.14036280368846987	1.9588050945030304	-0.6722438349430718	-0.15244796809627903	2.0834751754592484	-0.7271350514646315
42	1.4	-0.19373128274957763	1.9602866374818442	-0.5674154685747985	-0.20785440202876532	1.9571451716142263	-0.5131824519042812	-0.23441821234362004	1.8110617518366534	-0.5143377145020251	-0.18843835188922445	1.67406248833791	-0.43714442783672414							-0.17173175254793974	1.6640510286997698	-0.44059580847018714	-0.17552359219331085	1.9639263390269055	-0.6206979771961993	-0.18934308375390782	1.820382595010973	-0.5943282059014144	-0.16162516148796965	1.5887962106591382	-0.5175997622845618	-0.19037901259596302	1.5480225050739278	-0.555793668853796	-0.17285997416872514	1.5578521439272293	-0.5705648480565236	-0.16229622816422898	1.5782460057048096	-0.508385243560319	-0.1784863497843455	2.121556690784691	-0.5714504295216858	-0.19659117544023127	2.1953981302395227	-0.594821619121845	-0.1967453389877233	2.117758075944844	-0.5064345530230043	-0.2701630275265754	2.0874995939189014	-0.49401992294499386	-0.25234541775997205	2.1445105272641025	-0.4958479386225999	-0.15660108650400204	2.1271049483565916	-0.6385699670733622	-0.144373476661357	1.9723484331984193	-0.673908114454104	-0.1568472014712036	2.1473069858204537	-0.7431062095424182
43	1.4333333333333333	-1.6946102618593069	1.886840734286445	1.0744789015487357	-0.20580695758759512	1.9725858883953722	-0.5183405667674104	-0.2567021245538839	1.828245414519864	-0.5446547917043478	-0.18843835188922445	1.67406248833791	-0.43714442783672414							-0.17173175254793974	1.6640510286997698	-0.44059580847018714	-0.17271344099371433	1.9747426746429846	-0.6222539198853738	-0.20238453523824274	1.8237012508797985	-0.6110238035973793	-0.16336063370890133	1.5872064495196407	-0.5159653826373414	-0.191889624675743	1.546696200933813	-0.5540692700021939	-0.1743754581384677	1.5564064317286344	-0.5688403370997233	-0.16367673899782464	1.5793159245966757	-0.5076063045751107	-0.1765104209325489	2.1238692649886683	-0.5740938176097974	-0.19862233049873926	2.2012473031964506	-0.6018983209931114	-0.19586194176689278	2.1261054751614896	-0.5072072868685836	-0.25367946694164706	2.097435780807727	-0.48850781093822354	-0.2504475955023602	2.1499858345262113	-0.4850372433030647	-0.15721774782143977	2.127167595207851	-0.6489099133394157	-0.1483841496342441	1.985891771893808	-0.6755723939651362	-0.16861623771203224	2.132835613432964	-0.7226282365919514
44	1.4666666666666666	-1.693389799903179	1.8865407504449023	1.0730308660082473	-0.20584614422255476	1.9722245222801014	-0.5183491415830825	-0.25877112215385106	1.8264763663949726	-0.5513309113200953	-0.18843835188922445	1.67406248833791	-0.43714442783672414							-0.17173175254793974	1.6640510286997698	-0.44059580847018714	-0.17139829267903584	1.9759527375100618	-0.6275968458096873	-0.20863209023210214	1.825110870955007	-0.633969728796126	-0.16509610592983298	1.5856166883801435	-0.5143310029901209	-0.19340023675552298	1.545369896793698	-0.5523448711505918	-0.17589094210821024	1.5549607195300394	-0.567115826142923	-0.16505724983142028	1.580385843488542	-0.5068273655899024	-0.17232966834518404	2.126723529976662	-0.5798813362800354	-0.2015519753108113	2.20066191535208	-0.6119874616114503	-0.19578710369319477	2.127587216988595	-0.507872751803024	-0.24673982879854428	2.0883861600040112	-0.49869748371447364	-0.24491573124595672	2.1317029065941617	-0.5247865015537412	-0.14753757276584564	2.125880695291741	-0.6643148447240923	-0.15239482260713122	1.9994351105891968	-0.6772366734761683	-0.18038527395286091	2.118364241045474	-0.7021502636414847
